<svg width="650" height="89" viewBox="0 0 650 89" fill="none" xmlns="http://www.w3.org/2000/svg">
<rect x="578.56" width="71" height="87" fill="white"/>
<path d="M0 87.04V0H19.328L33.28 41.728H34.688L48.896 0H67.968V87.04H52.864V43.008L54.4 20.352H53.888L40.448 57.984H27.52L14.08 20.352H13.568L15.104 43.008V87.04H0Z" fill="white"/>
<path d="M140.544 87.04V0H159.872L173.824 41.728H175.232L189.44 0H208.512V87.04H193.408V43.008L194.944 20.352H194.432L180.992 57.984H168.064L154.624 20.352H154.112L155.648 43.008V87.04H140.544Z" fill="white"/>
<path d="M75.968 87.04V0H129.984V14.08H92.352V34.816H124.864V48.896H92.352V72.96H132.544V87.04H75.968Z" fill="white"/>
<path d="M241.6 88.704C234.005 88.704 225.643 88.2773 216.512 87.424V0.384003L237.12 0C252.139 0 262.379 1.70667 267.84 5.12C273.387 8.53334 276.16 14.8907 276.16 24.192C276.16 29.9093 275.307 34.048 273.6 36.608C271.979 39.168 268.992 40.9173 264.64 41.856V42.624C270.443 43.648 274.411 45.6533 276.544 48.64C278.763 51.6267 279.872 56.576 279.872 63.488C279.872 73.216 277.184 79.872 271.808 83.456C266.432 86.9547 256.363 88.704 241.6 88.704ZM232.64 74.368C236.651 74.5387 240.363 74.624 243.776 74.624C251.371 74.624 256.533 73.7707 259.264 72.064C262.08 70.3573 263.488 67.1147 263.488 62.336C263.488 57.472 262.336 54.1867 260.032 52.48C257.813 50.688 253.589 49.792 247.36 49.792H232.64V74.368ZM232.64 35.712H250.56C254.229 35.5413 256.704 34.7733 257.984 33.408C259.349 31.9573 260.032 29.2693 260.032 25.344C260.032 21.504 259.136 18.816 257.344 17.28C255.637 15.744 252.352 14.7627 247.488 14.336C243.307 13.9947 238.357 13.8667 232.64 13.952V35.712Z" fill="white"/>
<path d="M287.872 87.5695V0.657455L303.104 0.145454C314.539 -0.281212 323.328 0.230789 329.472 1.68146C335.616 3.04679 340.011 5.56412 342.656 9.23345C345.301 12.9028 346.667 18.1935 346.752 25.1055C346.837 31.8468 345.813 36.5828 343.68 39.3135C341.547 42.0441 337.579 43.8361 331.776 44.6895V45.8415C335.36 46.4388 338.005 47.7615 339.712 49.8095C341.504 51.8575 343.083 55.3988 344.448 60.4335L351.744 87.5695H334.208L328.192 61.5855C327.339 57.8308 325.803 55.3135 323.584 54.0335C321.365 52.6681 317.611 51.9855 312.32 51.9855H304.128V87.5695H287.872ZM304.128 37.7775H320.64C324.48 37.7775 327.083 36.8815 328.448 35.0895C329.899 33.2121 330.624 29.8841 330.624 25.1055C330.624 21.3508 329.899 18.7481 328.448 17.2975C326.997 15.7615 324.309 14.8655 320.384 14.6095C313.728 14.1828 308.309 14.0975 304.128 14.3535V37.7775Z" fill="white"/>
<path d="M359.744 87.04L385.728 0H406.464L432.448 87.04H416.192L409.92 66.176H382.272L376 87.04H359.744ZM386.112 52.48H406.08L396.224 15.872H395.968L386.112 52.48Z" fill="white"/>
<path d="M440.448 87.04V0H460.416L491.648 68.224H492.032L490.24 50.048V0H505.984V87.04H486.016L454.784 18.816H454.4L456.192 36.992V87.04H440.448Z" fill="white"/>
<path d="M513.984 87.04V0H568V14.08H530.368V34.816H562.88V48.896H530.368V72.96H570.56V87.04H513.984Z" fill="white"/>
</svg>
